<svg xmlns="http://www.w3.org/2000/svg" xmlns:xlink="http://www.w3.org/1999/xlink" x="0" y="0" enable-background="new 0 0 16 16" version="1.1" viewBox="0 0 16 16" xml:space="preserve"><g id="Layer_5"><g display="inline"><rect width="1" height="1" x="8" y="14" fill="#2A160D"/><rect width="1" height="1" x="7" y="14" fill="#2A160D"/><rect width="1" height="1" x="6" y="14" fill="#2A160D"/><rect width="1" height="1" x="5" y="14" fill="#2A160D"/><rect width="1" height="1" x="10" y="13" fill="#2A160D"/><rect width="1" height="1" x="9" y="13" fill="#2A160D"/><rect width="1" height="1" x="8" y="13" fill="#3F2116"/><rect width="1" height="1" x="7" y="13" fill="#3F2116"/><rect width="1" height="1" x="6" y="13" fill="#3F2116"/><rect width="1" height="1" x="5" y="13" fill="#3F2116"/><rect width="1" height="1" x="4" y="13" fill="#3F2116"/><rect width="1" height="1" x="3" y="13" fill="#2A160D"/><rect width="1" height="1" x="11" y="12" fill="#26140B"/><rect width="1" height="1" x="10" y="12" fill="#3F2116"/><rect width="1" height="1" x="9" y="12" fill="#3F2116"/><rect width="1" height="1" x="8" y="12" fill="#90573F"/><rect width="1" height="1" x="7" y="12" fill="#673728"/><rect width="1" height="1" x="6" y="12" fill="#6B3A2A"/><rect width="1" height="1" x="5" y="12" fill="#90573F"/><rect width="1" height="1" x="4" y="12" fill="#522F1F"/><rect width="1" height="1" x="3" y="12" fill="#3F2116"/><rect width="1" height="1" x="12" y="11" fill="#2A160D"/><rect width="1" height="1" x="11" y="11" fill="#3F2116"/><rect width="1" height="1" x="10" y="11" fill="#673627"/><rect width="1" height="1" x="9" y="11" fill="#6D3C2B"/><rect width="1" height="1" x="8" y="11" fill="#8D543D"/><rect width="1" height="1" x="7" y="11" fill="#8C533C"/><rect width="1" height="1" x="6" y="11" fill="#693829"/><rect width="1" height="1" x="5" y="11" fill="#854B3C"/><rect width="1" height="1" x="4" y="11" fill="#975B42"/><rect width="1" height="1" x="3" y="11" fill="#90573F"/><rect width="1" height="1" x="2" y="11" fill="#6B3A2A"/><rect width="1" height="1" x="13" y="10" fill="#2A160D"/><rect width="1" height="1" x="12" y="10" fill="#3F2116"/><rect width="1" height="1" x="11" y="10" fill="#90573F"/><rect width="1" height="1" x="10" y="10" fill="#8C533C"/><rect width="1" height="1" x="9" y="10" fill="#723F2E"/><rect width="1" height="1" x="8" y="10" fill="#82483A"/><rect width="1" height="1" x="7" y="10" fill="#7F4A35"/><rect width="1" height="1" x="6" y="10" fill="#8E553E"/><rect width="1" height="1" x="5" y="10" fill="#6F3D2C"/><rect width="1" height="1" x="4" y="10" fill="#7A3E2D"/><rect width="1" height="1" x="3" y="10" fill="#874B37"/><rect width="1" height="1" x="2" y="10" fill="#6B3A2A"/><rect width="1" height="1" x="13" y="9" fill="#3F2116"/><rect width="1" height="1" x="12" y="9" fill="#683828"/><rect width="1" height="1" x="11" y="9" fill="#6D3C2B"/><rect width="1" height="1" x="10" y="9" fill="#9C6854"/><rect width="1" height="1" x="9" y="9" fill="#9D6147"/><rect width="1" height="1" x="8" y="9" fill="#8E523C"/><rect width="1" height="1" x="7" y="9" fill="#824839"/><rect width="1" height="1" x="6" y="9" fill="#723F2E"/><rect width="1" height="1" x="5" y="9" fill="#9D6147"/><rect width="1" height="1" x="4" y="9" fill="#8A4E39"/><rect width="1" height="1" x="3" y="9" fill="#6B3A2A"/><rect width="1" height="1" x="14" y="8" fill="#2A160D"/><rect width="1" height="1" x="13" y="8" fill="#3F2116"/><rect width="1" height="1" x="12" y="8" fill="#8E553E"/><rect width="1" height="1" x="11" y="8" fill="#713F2D"/><rect width="1" height="1" x="10" y="8" fill="#673728"/><rect width="1" height="1" x="9" y="8" fill="#8C503A"/><rect width="1" height="1" x="8" y="8" fill="#90573F"/><rect width="1" height="1" x="7" y="8" fill="#985C43"/><rect width="1" height="1" x="6" y="8" fill="#693829"/><rect width="1" height="1" x="5" y="8" fill="#793E2D"/><rect width="1" height="1" x="4" y="8" fill="#87503A"/><rect width="1" height="1" x="3" y="8" fill="#6B3A2A"/><rect width="1" height="1" x="14" y="7" fill="#2A160D"/><rect width="1" height="1" x="13" y="7" fill="#90573F"/><rect width="1" height="1" x="12" y="7" fill="#89513B"/><rect width="1" height="1" x="11" y="7" fill="#9D6147"/><rect width="1" height="1" x="10" y="7" fill="#824C37"/><rect width="1" height="1" x="9" y="7" fill="#673728"/><rect width="1" height="1" x="8" y="7" fill="#884F40"/><rect width="1" height="1" x="7" y="7" fill="#90573F"/><rect width="1" height="1" x="6" y="7" fill="#90573F"/><rect width="1" height="1" x="5" y="7" fill="#6B3A2A"/><rect width="1" height="1" x="4" y="7" fill="#6B3A2A"/><rect width="1" height="1" x="14" y="6" fill="#3F2116"/><rect width="1" height="1" x="13" y="6" fill="#90573F"/><rect width="1" height="1" x="12" y="6" fill="#854B3C"/><rect width="1" height="1" x="11" y="6" fill="#7C402F"/><rect width="1" height="1" x="10" y="6" fill="#945941"/><rect width="1" height="1" x="9" y="6" fill="#9A6551"/><rect width="1" height="1" x="8" y="6" fill="#653526"/><rect width="1" height="1" x="7" y="6" fill="#82483A"/><rect width="1" height="1" x="6" y="6" fill="#6B3A2A"/><rect width="1" height="1" x="14" y="5" fill="#3F2116"/><rect width="1" height="1" x="13" y="5" fill="#90573F"/><rect width="1" height="1" x="12" y="5" fill="#90573F"/><rect width="1" height="1" x="11" y="5" fill="#723F2E"/><rect width="1" height="1" x="10" y="5" fill="#793D2D"/><rect width="1" height="1" x="9" y="5" fill="#8D5544"/><rect width="1" height="1" x="8" y="5" fill="#7F4A35"/><rect width="1" height="1" x="7" y="5" fill="#6B3A2A"/><rect width="1" height="1" x="13" y="4" fill="#2A160D"/><rect width="1" height="1" x="12" y="4" fill="#90573F"/><rect width="1" height="1" x="11" y="4" fill="#A3705A"/><rect width="1" height="1" x="10" y="4" fill="#804B36"/><rect width="1" height="1" x="9" y="4" fill="#653527"/><rect width="1" height="1" x="8" y="4" fill="#6B3A2A"/><rect width="1" height="1" x="12" y="3" fill="#6B3A2A"/><rect width="1" height="1" x="11" y="3" fill="#6B3A2A"/><rect width="1" height="1" x="10" y="3" fill="#6B3A2A"/><rect width="1" height="1" x="9" y="3" fill="#6B3A2A"/></g></g></svg>
