<svg xmlns="http://www.w3.org/2000/svg" xmlns:xlink="http://www.w3.org/1999/xlink" x="0" y="0" enable-background="new 0 0 16 16" version="1.1" viewBox="0 0 16 16" xml:space="preserve"><g id="Layer_10"><g><rect width="1" height="1" x="3" y="14" fill="#797870"/><rect width="1" height="1" x="4" y="13" fill="#797870"/><rect width="1" height="1" x="3" y="13" fill="#F5F3D6"/><rect width="1" height="1" x="2" y="13" fill="#E4E2D2"/><rect width="1" height="1" x="1" y="13" fill="#727877"/><rect width="1" height="1" x="4" y="12" fill="#797870"/><rect width="1" height="1" x="3" y="12" fill="#FCFBED"/><rect width="1" height="1" x="2" y="12" fill="#FFFFE9"/><rect width="1" height="1" x="1" y="12" fill="#E4E2D2"/><rect width="1" height="1" x="5" y="11" fill="#797870"/><rect width="1" height="1" x="4" y="11" fill="#FFFEEE"/><rect width="1" height="1" x="3" y="11" fill="#EDEBCA"/><rect width="1" height="1" x="2" y="11" fill="#FAF9DC"/><rect width="1" height="1" x="6" y="10" fill="#797870"/><rect width="1" height="1" x="5" y="10" fill="#FBFDE9"/><rect width="1" height="1" x="4" y="10" fill="#EDEBCA"/><rect width="1" height="1" x="7" y="9" fill="#797870"/><rect width="1" height="1" x="6" y="9" fill="#FDFEE4"/><rect width="1" height="1" x="5" y="9" fill="#EDEBCA"/><rect width="1" height="1" x="8" y="8" fill="#797870"/><rect width="1" height="1" x="7" y="8" fill="#FFFDE9"/><rect width="1" height="1" x="6" y="8" fill="#EDEBCA"/><rect width="1" height="1" x="9" y="7" fill="#797870"/><rect width="1" height="1" x="8" y="7" fill="#FFFFEB"/><rect width="1" height="1" x="7" y="7" fill="#EDEBCA"/><rect width="1" height="1" x="10" y="6" fill="#797870"/><rect width="1" height="1" x="9" y="6" fill="#FEFFE7"/><rect width="1" height="1" x="8" y="6" fill="#EDEBCA"/><rect width="1" height="1" x="11" y="5" fill="#797870"/><rect width="1" height="1" x="10" y="5" fill="#FFFDE8"/><rect width="1" height="1" x="9" y="5" fill="#EDEBCA"/><rect width="1" height="1" x="13" y="4" fill="#797870"/><rect width="1" height="1" x="12" y="4" fill="#797870"/><rect width="1" height="1" x="11" y="4" fill="#F9F7E7"/><rect width="1" height="1" x="10" y="4" fill="#EDEBCA"/><rect width="1" height="1" x="14" y="3" fill="#797870"/><rect width="1" height="1" x="13" y="3" fill="#F6F3D8"/><rect width="1" height="1" x="12" y="3" fill="#F1F6D5"/><rect width="1" height="1" x="11" y="3" fill="#EDEBCA"/><rect width="1" height="1" x="13" y="2" fill="#E4E2D2"/><rect width="1" height="1" x="12" y="2" fill="#F5F5D7"/><rect width="1" height="1" x="11" y="2" fill="#FFFEF0"/><rect width="1" height="1" x="13" y="1" fill="#777869"/><rect width="1" height="1" x="12" y="1" fill="#E4E2D2"/></g></g></svg>
