<svg xmlns="http://www.w3.org/2000/svg" xmlns:xlink="http://www.w3.org/1999/xlink" x="0" y="0" enable-background="new 0 0 16 16" version="1.1" viewBox="0 0 16 16" xml:space="preserve"><g id="diamond"><g><rect width="1" height="1" x="10" y="14" fill="#0C3730"/><rect width="1" height="1" x="9" y="14" fill="#0C3730"/><rect width="1" height="1" x="8" y="14" fill="#0C3730"/><rect width="1" height="1" x="7" y="14" fill="#0C3730"/><rect width="1" height="1" x="6" y="14" fill="#0C3730"/><rect width="1" height="1" x="5" y="14" fill="#0C3730"/><rect width="1" height="1" x="11" y="13" fill="#0C3730"/><rect width="1" height="1" x="10" y="13" fill="#209581"/><rect width="1" height="1" x="9" y="13" fill="#2CCDB1"/><rect width="1" height="1" x="8" y="13" fill="#2CCDB1"/><rect width="1" height="1" x="7" y="13" fill="#2CCDB1"/><rect width="1" height="1" x="6" y="13" fill="#2CCDB1"/><rect width="1" height="1" x="5" y="13" fill="#209581"/><rect width="1" height="1" x="4" y="13" fill="#0C3730"/><rect width="1" height="1" x="12" y="12" fill="#0C3730"/><rect width="1" height="1" x="11" y="12" fill="#209581"/><rect width="1" height="1" x="10" y="12" fill="#1B7B6B"/><rect width="1" height="1" x="9" y="12" fill="#2CCDB1"/><rect width="1" height="1" x="8" y="12" fill="#2CCDB1"/><rect width="1" height="1" x="7" y="12" fill="#2CCDB1"/><rect width="1" height="1" x="6" y="12" fill="#2CCDB1"/><rect width="1" height="1" x="5" y="12" fill="#1B7B6B"/><rect width="1" height="1" x="4" y="12" fill="#30DBBD"/><rect width="1" height="1" x="3" y="12" fill="#0C3730"/><rect width="1" height="1" x="12" y="11" fill="#0C3730"/><rect width="1" height="1" x="11" y="11" fill="#2CCDB1"/><rect width="1" height="1" x="10" y="11" fill="#1B7B6B"/><rect width="1" height="1" x="9" y="11" fill="#2CCDB1"/><rect width="1" height="1" x="8" y="11" fill="#2CCDB1"/><rect width="1" height="1" x="7" y="11" fill="#2CCDB1"/><rect width="1" height="1" x="6" y="11" fill="#2CCDB1"/><rect width="1" height="1" x="5" y="11" fill="#1B7B6B"/><rect width="1" height="1" x="4" y="11" fill="#4AEDD1"/><rect width="1" height="1" x="3" y="11" fill="#0C3730"/><rect width="1" height="1" x="13" y="10" fill="#0C3730"/><rect width="1" height="1" x="12" y="10" fill="#209581"/><rect width="1" height="1" x="11" y="10" fill="#2CCDB1"/><rect width="1" height="1" x="10" y="10" fill="#2CCDB1"/><rect width="1" height="1" x="9" y="10" fill="#209581"/><rect width="1" height="1" x="8" y="10" fill="#209581"/><rect width="1" height="1" x="7" y="10" fill="#209581"/><rect width="1" height="1" x="6" y="10" fill="#209581"/><rect width="1" height="1" x="5" y="10" fill="#4AEDD1"/><rect width="1" height="1" x="4" y="10" fill="#4AEDD1"/><rect width="1" height="1" x="3" y="10" fill="#FFF"/><rect width="1" height="1" x="2" y="10" fill="#0C3730"/><rect width="1" height="1" x="13" y="9" fill="#0C3730"/><rect width="1" height="1" x="12" y="9" fill="#1B7B6B"/><rect width="1" height="1" x="11" y="9" fill="#1B7B6B"/><rect width="1" height="1" x="10" y="9" fill="#209581"/><rect width="1" height="1" x="9" y="9" fill="#8CF4E2"/><rect width="1" height="1" x="8" y="9" fill="#8CF4E2"/><rect width="1" height="1" x="7" y="9" fill="#8CF4E2"/><rect width="1" height="1" x="6" y="9" fill="#8CF4E2"/><rect width="1" height="1" x="5" y="9" fill="#2CCDB1"/><rect width="1" height="1" x="4" y="9" fill="#D1FAF3"/><rect width="1" height="1" x="3" y="9" fill="#FFF"/><rect width="1" height="1" x="2" y="9" fill="#0C3730"/><rect width="1" height="1" x="13" y="8" fill="#0C3730"/><rect width="1" height="1" x="12" y="8" fill="#30DBBD"/><rect width="1" height="1" x="11" y="8" fill="#4AEDD1"/><rect width="1" height="1" x="10" y="8" fill="#209581"/><rect width="1" height="1" x="9" y="8" fill="#8CF4E2"/><rect width="1" height="1" x="8" y="8" fill="#8CF4E2"/><rect width="1" height="1" x="7" y="8" fill="#8CF4E2"/><rect width="1" height="1" x="6" y="8" fill="#8CF4E2"/><rect width="1" height="1" x="5" y="8" fill="#D1FAF3"/><rect width="1" height="1" x="4" y="8" fill="#A2F6E7"/><rect width="1" height="1" x="3" y="8" fill="#FFF"/><rect width="1" height="1" x="2" y="8" fill="#0C3730"/><rect width="1" height="1" x="12" y="7" fill="#0C3730"/><rect width="1" height="1" x="11" y="7" fill="#4AEDD1"/><rect width="1" height="1" x="10" y="7" fill="#209581"/><rect width="1" height="1" x="9" y="7" fill="#8CF4E2"/><rect width="1" height="1" x="8" y="7" fill="#8CF4E2"/><rect width="1" height="1" x="7" y="7" fill="#8CF4E2"/><rect width="1" height="1" x="6" y="7" fill="#8CF4E2"/><rect width="1" height="1" x="5" y="7" fill="#FFF"/><rect width="1" height="1" x="4" y="7" fill="#A2F6E7"/><rect width="1" height="1" x="3" y="7" fill="#FFF"/><rect width="1" height="1" x="2" y="7" fill="#0C3730"/><rect width="1" height="1" x="12" y="6" fill="#0C3730"/><rect width="1" height="1" x="11" y="6" fill="#30DBBD"/><rect width="1" height="1" x="10" y="6" fill="#4AEDD1"/><rect width="1" height="1" x="9" y="6" fill="#D1FAF3"/><rect width="1" height="1" x="8" y="6" fill="#D1FAF3"/><rect width="1" height="1" x="7" y="6" fill="#D1FAF3"/><rect width="1" height="1" x="6" y="6" fill="#FFF"/><rect width="1" height="1" x="5" y="6" fill="#A2F6E7"/><rect width="1" height="1" x="4" y="6" fill="#FFF"/><rect width="1" height="1" x="3" y="6" fill="#0C3730"/><rect width="1" height="1" x="11" y="5" fill="#0C3730"/><rect width="1" height="1" x="10" y="5" fill="#4AEDD1"/><rect width="1" height="1" x="9" y="5" fill="#4AEDD1"/><rect width="1" height="1" x="8" y="5" fill="#FFF"/><rect width="1" height="1" x="7" y="5" fill="#A2F6E7"/><rect width="1" height="1" x="6" y="5" fill="#A2F6E7"/><rect width="1" height="1" x="5" y="5" fill="#D1FAF3"/><rect width="1" height="1" x="4" y="5" fill="#FFF"/><rect width="1" height="1" x="3" y="5" fill="#0C3730"/><rect width="1" height="1" x="11" y="4" fill="#0C3730"/><rect width="1" height="1" x="10" y="4" fill="#30DBBD"/><rect width="1" height="1" x="9" y="4" fill="#D1FAF3"/><rect width="1" height="1" x="8" y="4" fill="#A2F6E7"/><rect width="1" height="1" x="7" y="4" fill="#A2F6E7"/><rect width="1" height="1" x="6" y="4" fill="#A2F6E7"/><rect width="1" height="1" x="5" y="4" fill="#FFF"/><rect width="1" height="1" x="4" y="4" fill="#0C3730"/><rect width="1" height="1" x="10" y="3" fill="#0C3730"/><rect width="1" height="1" x="9" y="3" fill="#FFF"/><rect width="1" height="1" x="8" y="3" fill="#FFF"/><rect width="1" height="1" x="7" y="3" fill="#FFF"/><rect width="1" height="1" x="6" y="3" fill="#FFF"/><rect width="1" height="1" x="5" y="3" fill="#0C3730"/><rect width="1" height="1" x="9" y="2" fill="#0C3730"/><rect width="1" height="1" x="8" y="2" fill="#0C3730"/><rect width="1" height="1" x="7" y="2" fill="#0C3730"/><rect width="1" height="1" x="6" y="2" fill="#0C3730"/></g></g></svg>